<svg xmlns="http://www.w3.org/2000/svg" width="112.24" height="40.185" viewBox="0 0 112.24 40.185"><defs><style>.a{fill:#fff;}</style></defs><g transform="translate(46.364 7.191)"><path d="M788.707,449.836a5.515,5.515,0,0,0,1.7-1.036,1.217,1.217,0,0,0,.083-1.734,1.247,1.247,0,0,0-1.75-.083,2.925,2.925,0,0,1-.92.565,2.99,2.99,0,0,1-1.058.188,2.98,2.98,0,0,1,0-5.961,2.853,2.853,0,0,1,1.058.194,2.926,2.926,0,0,1,.92.565,1.242,1.242,0,0,0,1.75-.083,1.217,1.217,0,0,0-.083-1.734,5.5,5.5,0,0,0-3.645-1.4,5.44,5.44,0,1,0,0,10.88A5.346,5.346,0,0,0,788.707,449.836Z" transform="translate(-781.306 -435.381)"/><path d="M1296.281,407.73a5.445,5.445,0,0,0-7.872-4.869V399.62a1.244,1.244,0,0,0-2.487,0v12.248a1.237,1.237,0,0,0,1.241,1.23,1.253,1.253,0,0,0,1.064-.6,5.452,5.452,0,0,0,8.055-4.77Zm-3.352,2.111a2.96,2.96,0,0,1-2.1.87,2.922,2.922,0,0,1-1.49-.4,3.079,3.079,0,0,1-.931-.864v-3.429a2.965,2.965,0,0,1,5.39,1.717A3.02,3.02,0,0,1,1292.929,409.841Z" transform="translate(-1237.561 -398.39)"/><path d="M897.531,446.289a2.866,2.866,0,0,1,.958-2.122,3.468,3.468,0,0,1,2.338-.875,1.148,1.148,0,1,0,0-2.288,6.084,6.084,0,0,0-3.579,1.141c-.044-.1-.083-.2-.133-.3l-.072-.15a1.243,1.243,0,0,0-1.673-.526,1.217,1.217,0,0,0-.532,1.651l.078.144a1.381,1.381,0,0,1,.1.238l.005.039a1.1,1.1,0,0,1,.028.294v6.886a1.244,1.244,0,0,0,2.487,0v-4.133Z" transform="translate(-883.85 -436.907)"/><path d="M1410.178,410.638a2.364,2.364,0,0,1-2.365-2.382,1.155,1.155,0,0,0-.016-.194,1.43,1.43,0,0,0-.05-.222v-4.077c0-.022.006-.039.006-.061V399.62a1.244,1.244,0,0,0-2.487,0V403.7c0,.011.005.028.005.039v4.482a1.144,1.144,0,0,0,.078.41,4.848,4.848,0,0,0,4.836,4.471,1.233,1.233,0,1,0-.005-2.465Z" transform="translate(-1345.548 -398.39)"/><path d="M993.08,442.525a1.238,1.238,0,0,0-2.476,0v4.465c0,.017-.005.033-.005.055a2.4,2.4,0,0,1-.7,1.723,2.342,2.342,0,0,1-1.673.692,2.364,2.364,0,0,1-2.371-2.382v-4.554a1.241,1.241,0,0,0-2.482,0v4.554a4.857,4.857,0,0,0,8.3,3.412,4.89,4.89,0,0,0,1.413-3.446c0-.017-.006-.033-.006-.05Z" transform="translate(-964.028 -437.17)"/><path d="M1113.447,439.374a4.542,4.542,0,0,0-3.2,1.324c-.028.028-.055.061-.083.089-.028-.028-.055-.061-.083-.089a4.518,4.518,0,0,0-5.767-.521,1.245,1.245,0,0,0-1.634-.476,1.217,1.217,0,0,0-.532,1.651,2.94,2.94,0,0,1,.172.393.993.993,0,0,1,.039.321v6.88a1.241,1.241,0,0,0,2.482,0v-5.069a2.033,2.033,0,0,1,2.038-2.05,2.033,2.033,0,0,1,2.039,2.028v5.085a1.244,1.244,0,0,0,2.487,0v-5.069h0a2.033,2.033,0,0,1,2.038-2.05,2.03,2.03,0,0,1,1.44.593,2.051,2.051,0,0,1,.6,1.451v5.074a1.241,1.241,0,0,0,2.482,0v-5.069a4.5,4.5,0,0,0-4.515-4.5Z" transform="translate(-1071.273 -435.433)"/><path d="M836.825,609.538a2.035,2.035,0,0,1-.011-4.066,1.836,1.836,0,0,1,1.446.609l.554-.587a2.77,2.77,0,0,0-2-.787,2.8,2.8,0,0,0,0,5.6,2.784,2.784,0,0,0,2.033-.82l-.554-.587A1.861,1.861,0,0,1,836.825,609.538Z" transform="translate(-829.012 -584.919)"/><path d="M1215.987,584.622a.565.565,0,1,0,.565.565A.567.567,0,0,0,1215.987,584.622Z" transform="translate(-1173.899 -566.795)"/><path d="M1273.663,604.707a2.61,2.61,0,0,0-2.7,2.764,2.682,2.682,0,0,0,2.764,2.831,2.979,2.979,0,0,0,2.1-.82l-.482-.587a2.273,2.273,0,0,1-1.623.659,1.856,1.856,0,0,1-1.928-1.745h4.288a3.79,3.79,0,0,0,.072-.67A2.349,2.349,0,0,0,1273.663,604.707Zm1.64,2.388h-3.512a1.794,1.794,0,0,1,1.861-1.64,1.546,1.546,0,0,1,1.651,1.618Z" transform="translate(-1224.024 -584.919)"/><path d="M1368.253,607.147c-1.042-.194-1.3-.343-1.3-.765,0-.554.476-.853,1.352-.853a3.088,3.088,0,0,1,1.64.438l.382-.648a3.721,3.721,0,0,0-2-.554c-1.014,0-2.2.371-2.2,1.64,0,.981.7,1.258,2.011,1.5.8.149,1.479.266,1.479.842,0,.648-.715.848-1.413.848a3.47,3.47,0,0,1-1.906-.543l-.382.643a4.163,4.163,0,0,0,2.277.67c1.329,0,2.255-.593,2.255-1.673C1370.441,607.568,1369.444,607.369,1368.253,607.147Z" transform="translate(-1309.938 -584.971)"/><path d="M1024.38,604.707a2.8,2.8,0,1,0,2.775,2.8A2.678,2.678,0,0,0,1024.38,604.707Zm0,4.831a2.036,2.036,0,1,1,1.933-2.033A1.885,1.885,0,0,1,1024.38,609.538Z" transform="translate(-998.628 -584.919)"/><rect width="0.798" height="5.318" transform="translate(41.683 19.927)"/><path d="M925.064,604.707a2.8,2.8,0,1,0,2.775,2.8A2.678,2.678,0,0,0,925.064,604.707Zm0,4.831A2.036,2.036,0,1,1,927,607.5,1.888,1.888,0,0,1,925.064,609.538Z" transform="translate(-908.818 -584.919)"/><path d="M1129.131,580.878h-1.108l-2.737,2.842v-5.5h-.8V586.2h.8v-1.363l1.047-1.086,1.872,2.449h.986l-2.3-3Z" transform="translate(-1091.653 -560.951)"/></g><g transform="translate(0)"><path d="M20.093,0A20.093,20.093,0,1,1,0,20.093,20.093,20.093,0,0,1,20.093,0Z"/><g transform="translate(7.2 5.359)"><path class="a" d="M780.582,320.43a1.026,1.026,0,0,1-.678-.972,1.119,1.119,0,0,1,.021-.239l0-.012a.757.757,0,0,1,.053-.16,1.852,1.852,0,0,0-.3-2.109l-.016-.017a7.647,7.647,0,0,0-2.171-1.553l-.04-.027-.063-.031-.092-.043c-.021-.012-.045-.025-.071-.038l-.044-.021-.05-.02a1.65,1.65,0,0,0-.176-.064c-.025-.01-.056-.021-.092-.032l-.044-.017-.132-.049-.085-.03-.006,0a1.641,1.641,0,0,0-.171-.057c-.025-.009-.051-.016-.077-.023l-.019-.006-.06-.02-.022,0c-.031-.01-.073-.022-.123-.034l-.2-.051-.156-.052h-.1l-.011,0c-.062-.014-.125-.027-.19-.038-.023,0-.052-.01-.084-.014l-.014,0c-.084-.014-.175-.028-.275-.039-.028,0-.061-.01-.1-.013s-.089-.008-.134-.011l-.027,0-.07-.009h-.07l-.073-.005c-.153-.011-.3-.011-.427-.011-.216,0-.437.01-.659.031a7.457,7.457,0,0,0-1.829-1.173,7.6,7.6,0,0,0-8.111,1.156c-.125-.008-.252-.014-.381-.014a7.65,7.65,0,0,0-2.985,14.682v4.559h-.662a1.847,1.847,0,1,0,0,3.695h2.9a1.847,1.847,0,0,0-.172.83,1.81,1.81,0,0,0,.583,1.287,8.49,8.49,0,0,0,8.94,1.707,8.358,8.358,0,0,0,2.681-1.713,1.833,1.833,0,0,0,.406-2.112h2.925a1.847,1.847,0,1,0,0-3.695h-.661v-4.538l.134-.033.075-.075c.152-.07.292-.144.421-.211l.077-.043c.11-.059.233-.126.362-.205l.023-.014a1.5,1.5,0,0,0,.142-.1,1.214,1.214,0,0,0,.168-.115c.038-.025.09-.06.147-.1s.082-.063.107-.083l.021-.014.038-.031.068-.053c.062-.048.132-.1.2-.165.048-.04.108-.091.174-.154l.072-.065.033-.03.088-.073.057-.071c.093-.089.173-.176.241-.251l.067-.073.011-.012.023-.023.2-.23.185-.246c.023-.026.045-.052.065-.078a1.743,1.743,0,0,0,.111-.157l.009-.011.017-.026a1.335,1.335,0,0,0,.1-.164c.012-.02.023-.039.034-.06l.008-.012c.043-.065.095-.145.147-.238.025-.042.059-.1.093-.171.058-.1.113-.212.172-.339l.012-.025.011-.027.008-.019.027-.063c.049-.107.1-.215.148-.33l.019-.043.031-.092a7.576,7.576,0,0,0,.51-2.73V322.2A1.836,1.836,0,0,0,780.582,320.43Z" transform="translate(-755.58 -312.778)"/><path d="M777.825,344.954v6.478h-1.791a.718.718,0,1,0,0,1.436h6.43a3.778,3.778,0,0,0,1.057.791,3.691,3.691,0,0,0,3.292,0,3.778,3.778,0,0,0,1.057-.791h6.43a.718.718,0,1,0,0-1.436h-1.791v-6.486c.04-.016.089-.024.129-.04a.189.189,0,0,1,.065-.016.03.03,0,0,0,.024-.008c.008,0,.024-.008.032-.008.113-.04.234-.081.347-.129.032-.008.056-.024.089-.032.008-.008.024-.008.032-.016.177-.073.347-.161.516-.25.016-.008.04-.024.057-.032.1-.056.21-.113.315-.177a.488.488,0,0,0,.081-.056c.016-.016.04-.024.057-.04s.04-.024.056-.032a.174.174,0,0,0,.04-.032c.056-.04.113-.073.161-.113s.089-.073.137-.1c.081-.065.169-.129.242-.194.048-.04.1-.081.145-.129s.1-.089.145-.129l.032-.04.024-.024a3.119,3.119,0,0,0,.226-.234c.032-.032.065-.073.1-.1l.145-.169.073-.1.073-.1c.032-.048.073-.089.1-.129s.056-.089.089-.129a.283.283,0,0,0,.04-.065c.008-.016.016-.024.024-.04s.008-.024.016-.032c.056-.089.113-.169.161-.258a.869.869,0,0,0,.065-.121c.057-.1.1-.194.153-.3.016-.04.032-.073.048-.113.048-.1.1-.21.145-.323l.024-.073a6.5,6.5,0,0,0,.444-2.348v-.057a.716.716,0,0,0-.484-.694,2.156,2.156,0,0,1-1.444-2.041,2.239,2.239,0,0,1,.048-.484,1.91,1.91,0,0,1,.145-.428.724.724,0,0,0-.113-.839,6.477,6.477,0,0,0-1.9-1.347c-.024-.016-.04-.024-.064-.04s-.073-.032-.1-.048a.353.353,0,0,1-.056-.032.633.633,0,0,0-.113-.04c-.032-.008-.056-.024-.089-.032-.073-.024-.145-.056-.218-.081-.04-.016-.073-.024-.113-.04a.594.594,0,0,0-.113-.032c-.008,0-.008-.008-.016-.008l-.081-.024c-.04-.008-.073-.024-.113-.032l-.194-.048c-.032-.008-.065-.016-.089-.024h-.024c-.1-.016-.186-.04-.282-.056-.016,0-.032-.008-.048-.008-.1-.016-.194-.032-.29-.04-.016,0-.032-.008-.048-.008-.065-.008-.129-.008-.194-.016h-.1a.138.138,0,0,1-.057-.008c-.113-.008-.234-.008-.347-.008a6.321,6.321,0,0,0-1.041.089,6.5,6.5,0,0,0-7.253-1.347,6.567,6.567,0,0,0-1.912,1.315l-.186-.024c-.21-.016-.4-.032-.581-.032h-.008a6.52,6.52,0,0,0-1.856,12.763Zm9.705,6.478c-.032,0-.065.008-.1.008h0a.607.607,0,0,0-.129.032h0a.818.818,0,0,0-.121.056h-.008a.52.52,0,0,0-.1.081l-.008.008a.7.7,0,0,0-.1.113,2.22,2.22,0,0,1-.791.653,2.282,2.282,0,0,1-1,.234,2.176,2.176,0,0,1-1-.234,2.258,2.258,0,0,1-.783-.645.7.7,0,0,0-.1-.113.008.008,0,0,1-.008-.008.912.912,0,0,0-.1-.081.008.008,0,0,1-.008-.008.822.822,0,0,0-.121-.056h-.008a.756.756,0,0,0-.129-.032h0a.4.4,0,0,0-.1-.008h-3.526v-3.284a21.749,21.749,0,0,1,2.557-.5c.024,0,.048-.008.073-.008a.933.933,0,1,0,1.347-.032l-.008-.008a.615.615,0,0,0-.113-.089c.653-.048,1.331-.081,2.025-.081s1.371.032,2.025.081a1.418,1.418,0,0,0-.113.1.936.936,0,1,0,1.6.661.92.92,0,0,0-.25-.629c.024,0,.048.008.073.008a21.75,21.75,0,0,1,2.557.5v3.284Zm-11.432-16.3a5.054,5.054,0,0,1,3.582-1.484c.177,0,.323.008.452.016a4.068,4.068,0,0,1,.452.065h0a.783.783,0,0,0,.137.008h.008a.734.734,0,0,0,.492-.21l.008-.008c.008-.008.016-.008.024-.016a5.129,5.129,0,0,1,1.71-1.242,5,5,0,0,1,2.057-.436,4.909,4.909,0,0,1,2.977.968,7.755,7.755,0,0,0-.726.379,6.5,6.5,0,0,0-2.4,2.582,7.155,7.155,0,0,0-.355.831,5.857,5.857,0,0,0-.242.871.723.723,0,0,0,1.42.274,5.179,5.179,0,0,1,.186-.678,4.9,4.9,0,0,1,.282-.645,5.121,5.121,0,0,1,1.872-2.017,5.016,5.016,0,0,1,2.63-.734c.169,0,.331.008.5.024.024,0,.048.008.081.008a.626.626,0,0,0,.129.016c.121.016.234.032.355.056h0a.985.985,0,0,1,.145.04c.121.032.242.057.355.1.073.024.137.048.2.073a2.76,2.76,0,0,1,.274.1,4.942,4.942,0,0,1,1.267.8l-.073.266a3.843,3.843,0,0,0-.089.8,3.59,3.59,0,0,0,1.912,3.171,5.034,5.034,0,0,1-.186,1.041v.016c-.032.1-.064.2-.1.307,0,.008-.008.024-.008.032a2.785,2.785,0,0,1-.113.274l-.024.048c-.04.089-.081.169-.121.25a.485.485,0,0,1-.032.065c-.04.073-.081.153-.129.226-.016.024-.032.056-.048.081a1.231,1.231,0,0,1-.089.129l-.194.266-.1.121c-.089.1-.177.21-.274.307l-.048.048-.024.024c-.1.089-.186.177-.29.266h0c-.04.04-.089.073-.137.113-.073.057-.153.113-.226.169-.032.024-.073.048-.1.073-.016.016-.04.024-.056.04l-.242.145c-.008.008-.016.008-.024.016-.04.024-.073.04-.113.065-.121.065-.25.121-.371.177-.04.016-.089.032-.129.048-.1.04-.2.073-.307.1a.877.877,0,0,1-.137.04,4.263,4.263,0,0,1-.436.1.724.724,0,0,0-.589.686v.016h0v2.267c-.75-.177-1.541-.331-2.364-.444a26.686,26.686,0,0,0-7.051,0,22.775,22.775,0,0,0-2.364.444V345.2c.129.008.266.016.4.016a.718.718,0,1,0,0-1.436,5.077,5.077,0,0,1-3.59-8.657Z" transform="translate(-772.041 -329.239)"/><path d="M885.835,702.038a7.286,7.286,0,0,0,2.323-1.484.706.706,0,0,0,.024-1.008.733.733,0,0,0-1.025-.024,5.98,5.98,0,0,1-1.872,1.194,5.929,5.929,0,0,1-4.34,0,5.928,5.928,0,0,1-1.872-1.194.723.723,0,0,0-1.017.024.706.706,0,0,0,.024,1.008,7.36,7.36,0,0,0,7.753,1.484Z" transform="translate(-870.006 -674.503)"/><path d="M1029.048,416.621a.72.72,0,0,0,1.009.121.729.729,0,0,0,.121-1.017l-.42-.524a.718.718,0,1,0-1.129.888Z" transform="translate(-1010.952 -408.368)"/><path d="M997.731,464.086l.573.347a.721.721,0,0,0,.758-1.226l-.573-.355a.721.721,0,0,0-.992.234A.728.728,0,0,0,997.731,464.086Z" transform="translate(-981.862 -453.114)"/><path d="M1061.387,468.234a.721.721,0,0,0,1.008-.153l.4-.541a.721.721,0,1,0-1.162-.855l-.4.541A.721.721,0,0,0,1061.387,468.234Z" transform="translate(-1041.476 -456.528)"/></g></g></svg>