<?xml version="1.0" encoding="UTF-8"?> <svg xmlns="http://www.w3.org/2000/svg" width="290.25" height="29.925" viewBox="0 0 290.25 29.925"><g transform="translate(-336.085 -207.307)"><path d="M428.256,207.71H419.3a.736.736,0,0,0-.736.736v18.528a.736.736,0,0,0,.736.736h2.918a.277.277,0,0,1,.277.277v8.756a.277.277,0,0,0,.277.276h2.011a.277.277,0,0,0,.277-.276v-8.756a.277.277,0,0,1,.277-.277h2.918a.736.736,0,0,0,.737-.736V208.446A.736.736,0,0,0,428.256,207.71Z" transform="translate(43.928 0.215)" fill="#cace3b"></path><path d="M352.481,214.236a.773.773,0,0,1-1.12.294,8.155,8.155,0,0,0-1.614-.869,6.193,6.193,0,0,0-2.247-.452,3.645,3.645,0,0,0-2.244.651,2.033,2.033,0,0,0-.869,1.7,1.689,1.689,0,0,0,.434,1.194,3.813,3.813,0,0,0,1.14.815,9.727,9.727,0,0,0,1.594.6q.887.253,1.756.543a10.957,10.957,0,0,1,5.087,3.1,7.638,7.638,0,0,1,1.612,5.051,9.836,9.836,0,0,1-.707,3.8,7.933,7.933,0,0,1-2.064,2.915,9.5,9.5,0,0,1-3.33,1.882,13.894,13.894,0,0,1-4.472.67,16.333,16.333,0,0,1-9-2.679.788.788,0,0,1-.259-1.028l2.256-4.244a.774.774,0,0,1,1.159-.254,11.407,11.407,0,0,0,2.441,1.507,7.554,7.554,0,0,0,3.078.688,3.671,3.671,0,0,0,2.589-.8,2.43,2.43,0,0,0,.852-1.812,2.466,2.466,0,0,0-.218-1.068,2.3,2.3,0,0,0-.723-.832,5.85,5.85,0,0,0-1.323-.707c-.543-.218-1.2-.458-1.972-.723q-1.377-.434-2.7-.959a8.471,8.471,0,0,1-2.353-1.395,6.452,6.452,0,0,1-1.666-2.192,7.726,7.726,0,0,1-.634-3.349,9.659,9.659,0,0,1,.671-3.675,8.16,8.16,0,0,1,1.882-2.825,8.423,8.423,0,0,1,2.969-1.828,11.248,11.248,0,0,1,3.93-.651,17.2,17.2,0,0,1,4.236.561,18.7,18.7,0,0,1,3.534,1.29.784.784,0,0,1,.345,1.059Z" transform="translate(0 0)" fill="#2254a2"></path><path d="M362.865,214.594v19.731a.78.78,0,0,1-.78.78h-5.539a.779.779,0,0,1-.779-.78V214.594a.78.78,0,0,0-.78-.78h-4.27a.78.78,0,0,1-.78-.78v-4.451a.78.78,0,0,1,.78-.78h17.2a.78.78,0,0,1,.78.78v4.451a.78.78,0,0,1-.78.78h-4.27A.779.779,0,0,0,362.865,214.594Z" transform="translate(7.378 0.264)" fill="#2254a2"></path><path d="M379.676,213.814H372.8a.78.78,0,0,0-.78.78v3a.78.78,0,0,0,.78.78h6.406a.78.78,0,0,1,.78.78v4.451a.78.78,0,0,1-.78.78H372.8a.78.78,0,0,0-.78.78v3.148a.78.78,0,0,0,.78.779h6.877a.78.78,0,0,1,.78.78v4.451a.78.78,0,0,1-.78.78H365.7a.78.78,0,0,1-.78-.78V208.583a.78.78,0,0,1,.78-.78h13.974a.78.78,0,0,1,.78.78v4.451A.78.78,0,0,1,379.676,213.814Z" transform="translate(15.359 0.264)" fill="#2254a2"></path><path d="M392.558,213.814h-6.877a.78.78,0,0,0-.78.78v3a.78.78,0,0,0,.78.78h6.406a.78.78,0,0,1,.78.78v4.451a.78.78,0,0,1-.78.78h-6.406a.78.78,0,0,0-.78.78v3.148a.78.78,0,0,0,.78.779h6.877a.78.78,0,0,1,.78.78v4.451a.78.78,0,0,1-.78.78H378.584a.78.78,0,0,1-.78-.78V208.583a.78.78,0,0,1,.78-.78h13.974a.78.78,0,0,1,.78.78v4.451A.78.78,0,0,1,392.558,213.814Z" transform="translate(22.22 0.264)" fill="#2254a2"></path><path d="M398.764,208.583v19.732a.78.78,0,0,0,.78.779h7.729V235.1H392.447a.779.779,0,0,1-.779-.78V208.583a.779.779,0,0,1,.779-.78h5.539A.779.779,0,0,1,398.764,208.583Z" transform="translate(29.603 0.264)" fill="#2254a2"></path><path d="M423.64,216.265a.354.354,0,0,1-.6.257,7.67,7.67,0,0,0-8.435-1.756,7.185,7.185,0,0,0-2.334,1.576,7.261,7.261,0,0,0-1.54,2.371,7.8,7.8,0,0,0-.561,2.97,7.88,7.88,0,0,0,.561,3,7.234,7.234,0,0,0,3.893,3.983,7.222,7.222,0,0,0,2.9.579,8.457,8.457,0,0,0,5.3-2.1c.82-.645.82-.054.82.372,0,0,0,4.628,0,6.768a.606.606,0,0,1-.353.561,19.053,19.053,0,0,1-3.411,1.008,14.756,14.756,0,0,1-2.788.271,14.253,14.253,0,0,1-9.976-4.074,14.921,14.921,0,0,1-3.169-4.6,14.748,14.748,0,0,1-.017-11.586,14.419,14.419,0,0,1,13.2-8.564,14.939,14.939,0,0,1,3.2.345,18.814,18.814,0,0,1,2.907.9.648.648,0,0,1,.406.6Z" transform="translate(35.505 0)" fill="#2254a2"></path><path d="M440.295,214.594v19.731a.78.78,0,0,1-.78.78h-5.537a.78.78,0,0,1-.78-.78V214.594a.78.78,0,0,0-.78-.78h-4.27a.779.779,0,0,1-.779-.78v-4.451a.779.779,0,0,1,.779-.78h17.2a.78.78,0,0,1,.78.78v4.451a.78.78,0,0,1-.78.78h-4.27A.78.78,0,0,0,440.295,214.594Z" transform="translate(48.618 0.264)" fill="#2254a2"></path><path d="M450.939,221.8l-8.955-12.765a.78.78,0,0,1,.638-1.228h6.561a.778.778,0,0,1,.645.342l4.19,6.166a.779.779,0,0,0,1.29,0l4.158-6.161a.782.782,0,0,1,.647-.343h6.556a.779.779,0,0,1,.638,1.228L458.32,221.8a.774.774,0,0,0-.142.449v12.08a.78.78,0,0,1-.78.78H451.86a.78.78,0,0,1-.78-.78V222.243A.782.782,0,0,0,450.939,221.8Z" transform="translate(56.326 0.264)" fill="#2254a2"></path><path d="M466.69,235.1h-5.537a.78.78,0,0,1-.78-.78V208.583a.78.78,0,0,1,.78-.78h10.518q4.6,0,7.042,2.389a10.505,10.505,0,0,1,0,13.47q-2.446,2.391-7.042,2.391h-3.422a.778.778,0,0,0-.779.779v7.493A.78.78,0,0,1,466.69,235.1Zm.78-15.553a.779.779,0,0,0,.779.78h1.576q3.91,0,3.91-3.4t-3.91-3.4h-1.576a.779.779,0,0,0-.779.78Z" transform="translate(66.195 0.264)" fill="#2254a2"></path><path d="M475.712,221.718a14.265,14.265,0,0,1,1.123-5.666,14,14,0,0,1,7.874-7.64,17.35,17.35,0,0,1,12.186,0,14.373,14.373,0,0,1,4.8,3.059,13.994,13.994,0,0,1,3.133,4.581,14.851,14.851,0,0,1,0,11.332,13.978,13.978,0,0,1-3.133,4.581,14.4,14.4,0,0,1-4.8,3.061,17.372,17.372,0,0,1-12.186,0,14.238,14.238,0,0,1-4.76-3.061,14.093,14.093,0,0,1-3.114-4.581A14.259,14.259,0,0,1,475.712,221.718Zm7.424,0a7.3,7.3,0,0,0,.615,3.005,7.59,7.59,0,0,0,1.666,2.389,7.5,7.5,0,0,0,2.444,1.576,8.043,8.043,0,0,0,5.9,0,7.7,7.7,0,0,0,2.461-1.576,7.448,7.448,0,0,0,1.684-2.389,7.64,7.64,0,0,0,0-6.011,7.465,7.465,0,0,0-1.684-2.389,7.731,7.731,0,0,0-2.461-1.576,8.043,8.043,0,0,0-5.9,0,7.523,7.523,0,0,0-2.444,1.576,7.608,7.608,0,0,0-1.666,2.389A7.3,7.3,0,0,0,483.136,221.718Z" transform="translate(74.365 0)" fill="#2254a2"></path><path d="M503.681,235.1h-5.539a.779.779,0,0,1-.778-.78V208.583a.779.779,0,0,1,.778-.78h10.518q4.6,0,7.044,2.389a10.505,10.505,0,0,1,0,13.47q-2.446,2.391-7.044,2.391H505.24a.779.779,0,0,0-.78.779v7.493A.779.779,0,0,1,503.681,235.1Zm.779-15.553a.78.78,0,0,0,.78.78h1.574q3.911,0,3.911-3.4t-3.911-3.4H505.24a.78.78,0,0,0-.78.78Z" transform="translate(85.896 0.264)" fill="#2254a2"></path><path d="M528.864,214.236a.773.773,0,0,1-1.12.294,8.076,8.076,0,0,0-1.614-.869,6.185,6.185,0,0,0-2.245-.452,3.647,3.647,0,0,0-2.245.651,2.033,2.033,0,0,0-.869,1.7,1.683,1.683,0,0,0,.435,1.194,3.772,3.772,0,0,0,1.14.815,9.644,9.644,0,0,0,1.592.6q.887.253,1.756.543a10.949,10.949,0,0,1,5.087,3.1,7.638,7.638,0,0,1,1.612,5.051,9.81,9.81,0,0,1-.706,3.8,7.933,7.933,0,0,1-2.064,2.915,9.5,9.5,0,0,1-3.33,1.882,13.887,13.887,0,0,1-4.472.67,16.333,16.333,0,0,1-9-2.679.788.788,0,0,1-.259-1.028l2.256-4.245a.775.775,0,0,1,1.159-.253,11.373,11.373,0,0,0,2.443,1.507,7.548,7.548,0,0,0,3.077.688,3.675,3.675,0,0,0,2.589-.8,2.469,2.469,0,0,0,.633-2.88,2.292,2.292,0,0,0-.725-.832,5.8,5.8,0,0,0-1.321-.707q-.814-.326-1.972-.723-1.377-.434-2.7-.959a8.46,8.46,0,0,1-2.354-1.395,6.452,6.452,0,0,1-1.666-2.192,7.752,7.752,0,0,1-.633-3.349,9.66,9.66,0,0,1,.67-3.675,8.163,8.163,0,0,1,1.882-2.825,8.432,8.432,0,0,1,2.97-1.828,11.239,11.239,0,0,1,3.928-.651,17.2,17.2,0,0,1,4.236.561,18.659,18.659,0,0,1,3.534,1.29.782.782,0,0,1,.345,1.059Z" transform="translate(93.941 0)" fill="#2254a2"></path></g></svg> 